<?xml version="1.0" encoding="UTF-8" standalone="no"?>
<svg width="520px" height="19px" viewBox="0 0 520 19" version="1.1" xmlns="http://www.w3.org/2000/svg" xmlns:xlink="http://www.w3.org/1999/xlink" xmlns:sketch="http://www.bohemiancoding.com/sketch/ns">
    <!-- Generator: Sketch 3.3.2 (12043) - http://www.bohemiancoding.com/sketch -->
    <title>Group</title>
    <desc>Created with Sketch.</desc>
    <defs></defs>
    <g id="Page-1" stroke="none" stroke-width="1" fill="none" fill-rule="evenodd" sketch:type="MSPage">
        <g id="Desktop-HD" sketch:type="MSArtboardGroup" transform="translate(-453.000000, -104.000000)">
            <g id="Group" sketch:type="MSLayerGroup" transform="translate(453.000000, 104.000000)">
                <g id="Oval-1-+-Fill-51-Copy-7" transform="translate(0.000000, 0.500000)" sketch:type="MSShapeGroup">
                    <ellipse id="Oval-1" fill="#132427" cx="3.13043478" cy="14.8101266" rx="3.13043478" ry="3.18987342"></ellipse>
                    <path d="M5.17416149,14.6629367 C5.17416149,15.5137215 4.21624845,16.2034177 3.03495652,16.2034177 C1.85344099,16.2034177 0.895751553,15.5137215 0.895751553,14.6629367 L0.895751553,1.61316456 C0.895751553,0.762379747 1.85344099,0.0726835443 3.03495652,0.0726835443 C4.21624845,0.0726835443 5.17416149,0.762379747 5.17416149,1.61316456 L5.17416149,14.6629367" id="Fill-51" fill="#BFC2BF"></path>
                </g>
                <g id="Oval-1-+-Fill-51-Copy-19" transform="translate(324.000000, 0.500000)" sketch:type="MSShapeGroup">
                    <ellipse id="Oval-1" fill="#132427" cx="3.13043478" cy="14.8101266" rx="3.13043478" ry="3.18987342"></ellipse>
                    <path d="M5.17416149,14.6629367 C5.17416149,15.5137215 4.21624845,16.2034177 3.03495652,16.2034177 C1.85344099,16.2034177 0.895751553,15.5137215 0.895751553,14.6629367 L0.895751553,1.61316456 C0.895751553,0.762379747 1.85344099,0.0726835443 3.03495652,0.0726835443 C4.21624845,0.0726835443 5.17416149,0.762379747 5.17416149,1.61316456 L5.17416149,14.6629367" id="Fill-51" fill="#BFC2BF"></path>
                </g>
                <g id="Oval-1-+-Fill-51-Copy-12" transform="translate(135.000000, 0.500000)" sketch:type="MSShapeGroup">
                    <ellipse id="Oval-1" fill="#132427" cx="3.13043478" cy="14.8101266" rx="3.13043478" ry="3.18987342"></ellipse>
                    <path d="M5.17416149,14.6629367 C5.17416149,15.5137215 4.21624845,16.2034177 3.03495652,16.2034177 C1.85344099,16.2034177 0.895751553,15.5137215 0.895751553,14.6629367 L0.895751553,1.61316456 C0.895751553,0.762379747 1.85344099,0.0726835443 3.03495652,0.0726835443 C4.21624845,0.0726835443 5.17416149,0.762379747 5.17416149,1.61316456 L5.17416149,14.6629367" id="Fill-51" fill="#BFC2BF"></path>
                </g>
                <g id="Oval-1-+-Fill-51-Copy-20" transform="translate(459.000000, 0.500000)" sketch:type="MSShapeGroup">
                    <ellipse id="Oval-1" fill="#132427" cx="3.13043478" cy="14.8101266" rx="3.13043478" ry="3.18987342"></ellipse>
                    <path d="M5.17416149,14.6629367 C5.17416149,15.5137215 4.21624845,16.2034177 3.03495652,16.2034177 C1.85344099,16.2034177 0.895751553,15.5137215 0.895751553,14.6629367 L0.895751553,1.61316456 C0.895751553,0.762379747 1.85344099,0.0726835443 3.03495652,0.0726835443 C4.21624845,0.0726835443 5.17416149,0.762379747 5.17416149,1.61316456 L5.17416149,14.6629367" id="Fill-51" fill="#BFC2BF"></path>
                </g>
                <g id="Oval-1-+-Fill-51-Copy-16" transform="translate(243.000000, 0.500000)" sketch:type="MSShapeGroup">
                    <ellipse id="Oval-1" fill="#132427" cx="3.13043478" cy="14.8101266" rx="3.13043478" ry="3.18987342"></ellipse>
                    <path d="M5.17416149,14.6629367 C5.17416149,15.5137215 4.21624845,16.2034177 3.03495652,16.2034177 C1.85344099,16.2034177 0.895751553,15.5137215 0.895751553,14.6629367 L0.895751553,1.61316456 C0.895751553,0.762379747 1.85344099,0.0726835443 3.03495652,0.0726835443 C4.21624845,0.0726835443 5.17416149,0.762379747 5.17416149,1.61316456 L5.17416149,14.6629367" id="Fill-51" fill="#BFC2BF"></path>
                </g>
                <g id="Oval-1-+-Fill-51-Copy-8" transform="translate(27.000000, 0.500000)" sketch:type="MSShapeGroup">
                    <ellipse id="Oval-1" fill="#132427" cx="3.13043478" cy="14.8101266" rx="3.13043478" ry="3.18987342"></ellipse>
                    <path d="M5.17416149,14.6629367 C5.17416149,15.5137215 4.21624845,16.2034177 3.03495652,16.2034177 C1.85344099,16.2034177 0.895751553,15.5137215 0.895751553,14.6629367 L0.895751553,1.61316456 C0.895751553,0.762379747 1.85344099,0.0726835443 3.03495652,0.0726835443 C4.21624845,0.0726835443 5.17416149,0.762379747 5.17416149,1.61316456 L5.17416149,14.6629367" id="Fill-51" fill="#BFC2BF"></path>
                </g>
                <g id="Oval-1-+-Fill-51-Copy-22" transform="translate(351.000000, 0.500000)" sketch:type="MSShapeGroup">
                    <ellipse id="Oval-1" fill="#132427" cx="3.13043478" cy="14.8101266" rx="3.13043478" ry="3.18987342"></ellipse>
                    <path d="M5.17416149,14.6629367 C5.17416149,15.5137215 4.21624845,16.2034177 3.03495652,16.2034177 C1.85344099,16.2034177 0.895751553,15.5137215 0.895751553,14.6629367 L0.895751553,1.61316456 C0.895751553,0.762379747 1.85344099,0.0726835443 3.03495652,0.0726835443 C4.21624845,0.0726835443 5.17416149,0.762379747 5.17416149,1.61316456 L5.17416149,14.6629367" id="Fill-51" fill="#BFC2BF"></path>
                </g>
                <g id="Oval-1-+-Fill-51-Copy-13" transform="translate(162.000000, 0.500000)" sketch:type="MSShapeGroup">
                    <ellipse id="Oval-1" fill="#132427" cx="3.13043478" cy="14.8101266" rx="3.13043478" ry="3.18987342"></ellipse>
                    <path d="M5.17416149,14.6629367 C5.17416149,15.5137215 4.21624845,16.2034177 3.03495652,16.2034177 C1.85344099,16.2034177 0.895751553,15.5137215 0.895751553,14.6629367 L0.895751553,1.61316456 C0.895751553,0.762379747 1.85344099,0.0726835443 3.03495652,0.0726835443 C4.21624845,0.0726835443 5.17416149,0.762379747 5.17416149,1.61316456 L5.17416149,14.6629367" id="Fill-51" fill="#BFC2BF"></path>
                </g>
                <g id="Oval-1-+-Fill-51-Copy-23" transform="translate(486.000000, 0.500000)" sketch:type="MSShapeGroup">
                    <ellipse id="Oval-1" fill="#132427" cx="3.13043478" cy="14.8101266" rx="3.13043478" ry="3.18987342"></ellipse>
                    <path d="M5.17416149,14.6629367 C5.17416149,15.5137215 4.21624845,16.2034177 3.03495652,16.2034177 C1.85344099,16.2034177 0.895751553,15.5137215 0.895751553,14.6629367 L0.895751553,1.61316456 C0.895751553,0.762379747 1.85344099,0.0726835443 3.03495652,0.0726835443 C4.21624845,0.0726835443 5.17416149,0.762379747 5.17416149,1.61316456 L5.17416149,14.6629367" id="Fill-51" fill="#BFC2BF"></path>
                </g>
                <g id="Oval-1-+-Fill-51-Copy-17" transform="translate(270.000000, 0.500000)" sketch:type="MSShapeGroup">
                    <ellipse id="Oval-1" fill="#132427" cx="3.13043478" cy="14.8101266" rx="3.13043478" ry="3.18987342"></ellipse>
                    <path d="M5.17416149,14.6629367 C5.17416149,15.5137215 4.21624845,16.2034177 3.03495652,16.2034177 C1.85344099,16.2034177 0.895751553,15.5137215 0.895751553,14.6629367 L0.895751553,1.61316456 C0.895751553,0.762379747 1.85344099,0.0726835443 3.03495652,0.0726835443 C4.21624845,0.0726835443 5.17416149,0.762379747 5.17416149,1.61316456 L5.17416149,14.6629367" id="Fill-51" fill="#BFC2BF"></path>
                </g>
                <g id="Oval-1-+-Fill-51-Copy-9" transform="translate(54.000000, 0.500000)" sketch:type="MSShapeGroup">
                    <ellipse id="Oval-1" fill="#132427" cx="3.13043478" cy="14.8101266" rx="3.13043478" ry="3.18987342"></ellipse>
                    <path d="M5.17416149,14.6629367 C5.17416149,15.5137215 4.21624845,16.2034177 3.03495652,16.2034177 C1.85344099,16.2034177 0.895751553,15.5137215 0.895751553,14.6629367 L0.895751553,1.61316456 C0.895751553,0.762379747 1.85344099,0.0726835443 3.03495652,0.0726835443 C4.21624845,0.0726835443 5.17416149,0.762379747 5.17416149,1.61316456 L5.17416149,14.6629367" id="Fill-51" fill="#BFC2BF"></path>
                </g>
                <g id="Oval-1-+-Fill-51-Copy-25" transform="translate(378.000000, 0.500000)" sketch:type="MSShapeGroup">
                    <ellipse id="Oval-1" fill="#132427" cx="3.13043478" cy="14.8101266" rx="3.13043478" ry="3.18987342"></ellipse>
                    <path d="M5.17416149,14.6629367 C5.17416149,15.5137215 4.21624845,16.2034177 3.03495652,16.2034177 C1.85344099,16.2034177 0.895751553,15.5137215 0.895751553,14.6629367 L0.895751553,1.61316456 C0.895751553,0.762379747 1.85344099,0.0726835443 3.03495652,0.0726835443 C4.21624845,0.0726835443 5.17416149,0.762379747 5.17416149,1.61316456 L5.17416149,14.6629367" id="Fill-51" fill="#BFC2BF"></path>
                </g>
                <g id="Oval-1-+-Fill-51-Copy-14" transform="translate(189.000000, 0.500000)" sketch:type="MSShapeGroup">
                    <ellipse id="Oval-1" fill="#132427" cx="3.13043478" cy="14.8101266" rx="3.13043478" ry="3.18987342"></ellipse>
                    <path d="M5.17416149,14.6629367 C5.17416149,15.5137215 4.21624845,16.2034177 3.03495652,16.2034177 C1.85344099,16.2034177 0.895751553,15.5137215 0.895751553,14.6629367 L0.895751553,1.61316456 C0.895751553,0.762379747 1.85344099,0.0726835443 3.03495652,0.0726835443 C4.21624845,0.0726835443 5.17416149,0.762379747 5.17416149,1.61316456 L5.17416149,14.6629367" id="Fill-51" fill="#BFC2BF"></path>
                </g>
                <g id="Oval-1-+-Fill-51-Copy-26" transform="translate(513.000000, 0.500000)" sketch:type="MSShapeGroup">
                    <ellipse id="Oval-1" fill="#132427" cx="3.13043478" cy="14.8101266" rx="3.13043478" ry="3.18987342"></ellipse>
                    <path d="M5.17416149,14.6629367 C5.17416149,15.5137215 4.21624845,16.2034177 3.03495652,16.2034177 C1.85344099,16.2034177 0.895751553,15.5137215 0.895751553,14.6629367 L0.895751553,1.61316456 C0.895751553,0.762379747 1.85344099,0.0726835443 3.03495652,0.0726835443 C4.21624845,0.0726835443 5.17416149,0.762379747 5.17416149,1.61316456 L5.17416149,14.6629367" id="Fill-51" fill="#BFC2BF"></path>
                </g>
                <g id="Oval-1-+-Fill-51-Copy-18" transform="translate(297.000000, 0.500000)" sketch:type="MSShapeGroup">
                    <ellipse id="Oval-1" fill="#132427" cx="3.13043478" cy="14.8101266" rx="3.13043478" ry="3.18987342"></ellipse>
                    <path d="M5.17416149,14.6629367 C5.17416149,15.5137215 4.21624845,16.2034177 3.03495652,16.2034177 C1.85344099,16.2034177 0.895751553,15.5137215 0.895751553,14.6629367 L0.895751553,1.61316456 C0.895751553,0.762379747 1.85344099,0.0726835443 3.03495652,0.0726835443 C4.21624845,0.0726835443 5.17416149,0.762379747 5.17416149,1.61316456 L5.17416149,14.6629367" id="Fill-51" fill="#BFC2BF"></path>
                </g>
                <g id="Oval-1-+-Fill-51-Copy-10" transform="translate(81.000000, 0.500000)" sketch:type="MSShapeGroup">
                    <ellipse id="Oval-1" fill="#132427" cx="3.13043478" cy="14.8101266" rx="3.13043478" ry="3.18987342"></ellipse>
                    <path d="M5.17416149,14.6629367 C5.17416149,15.5137215 4.21624845,16.2034177 3.03495652,16.2034177 C1.85344099,16.2034177 0.895751553,15.5137215 0.895751553,14.6629367 L0.895751553,1.61316456 C0.895751553,0.762379747 1.85344099,0.0726835443 3.03495652,0.0726835443 C4.21624845,0.0726835443 5.17416149,0.762379747 5.17416149,1.61316456 L5.17416149,14.6629367" id="Fill-51" fill="#BFC2BF"></path>
                </g>
                <g id="Oval-1-+-Fill-51-Copy-28" transform="translate(405.000000, 0.500000)" sketch:type="MSShapeGroup">
                    <ellipse id="Oval-1" fill="#132427" cx="3.13043478" cy="14.8101266" rx="3.13043478" ry="3.18987342"></ellipse>
                    <path d="M5.17416149,14.6629367 C5.17416149,15.5137215 4.21624845,16.2034177 3.03495652,16.2034177 C1.85344099,16.2034177 0.895751553,15.5137215 0.895751553,14.6629367 L0.895751553,1.61316456 C0.895751553,0.762379747 1.85344099,0.0726835443 3.03495652,0.0726835443 C4.21624845,0.0726835443 5.17416149,0.762379747 5.17416149,1.61316456 L5.17416149,14.6629367" id="Fill-51" fill="#BFC2BF"></path>
                </g>
                <g id="Oval-1-+-Fill-51-Copy-15" transform="translate(216.000000, 0.500000)" sketch:type="MSShapeGroup">
                    <ellipse id="Oval-1" fill="#132427" cx="3.13043478" cy="14.8101266" rx="3.13043478" ry="3.18987342"></ellipse>
                    <path d="M5.17416149,14.6629367 C5.17416149,15.5137215 4.21624845,16.2034177 3.03495652,16.2034177 C1.85344099,16.2034177 0.895751553,15.5137215 0.895751553,14.6629367 L0.895751553,1.61316456 C0.895751553,0.762379747 1.85344099,0.0726835443 3.03495652,0.0726835443 C4.21624845,0.0726835443 5.17416149,0.762379747 5.17416149,1.61316456 L5.17416149,14.6629367" id="Fill-51" fill="#BFC2BF"></path>
                </g>
                <g id="Oval-1-+-Fill-51-Copy-11" transform="translate(108.000000, 0.500000)" sketch:type="MSShapeGroup">
                    <ellipse id="Oval-1" fill="#132427" cx="3.13043478" cy="14.8101266" rx="3.13043478" ry="3.18987342"></ellipse>
                    <path d="M5.17416149,14.6629367 C5.17416149,15.5137215 4.21624845,16.2034177 3.03495652,16.2034177 C1.85344099,16.2034177 0.895751553,15.5137215 0.895751553,14.6629367 L0.895751553,1.61316456 C0.895751553,0.762379747 1.85344099,0.0726835443 3.03495652,0.0726835443 C4.21624845,0.0726835443 5.17416149,0.762379747 5.17416149,1.61316456 L5.17416149,14.6629367" id="Fill-51" fill="#BFC2BF"></path>
                </g>
                <g id="Oval-1-+-Fill-51-Copy-30" transform="translate(432.000000, 0.500000)" sketch:type="MSShapeGroup">
                    <ellipse id="Oval-1" fill="#132427" cx="3.13043478" cy="14.8101266" rx="3.13043478" ry="3.18987342"></ellipse>
                    <path d="M5.17416149,14.6629367 C5.17416149,15.5137215 4.21624845,16.2034177 3.03495652,16.2034177 C1.85344099,16.2034177 0.895751553,15.5137215 0.895751553,14.6629367 L0.895751553,1.61316456 C0.895751553,0.762379747 1.85344099,0.0726835443 3.03495652,0.0726835443 C4.21624845,0.0726835443 5.17416149,0.762379747 5.17416149,1.61316456 L5.17416149,14.6629367" id="Fill-51" fill="#BFC2BF"></path>
                </g>
            </g>
        </g>
    </g>
</svg>